<svg xmlns="http://www.w3.org/2000/svg" viewBox="0 0 441 281"><defs><style>.cls-1{fill:#0033a1;}.cls-2{fill:#fff;}</style></defs><g id="Capa_2" data-name="Capa 2"><g id="Capa_1-2" data-name="Capa 1"><rect class="cls-1" width="441" height="281"/><path class="cls-2" d="M392.25,215.41a4.43,4.43,0,0,1-6.29,0,4.44,4.44,0,0,1,6.29-6.28,4.24,4.24,0,0,1,1.3,3.13,4.29,4.29,0,0,1-1.3,3.15m-5.84-5.85a3.68,3.68,0,0,0-1.12,2.71,3.77,3.77,0,0,0,1.1,2.72,3.84,3.84,0,0,0,5.42,0,3.88,3.88,0,0,0,0-5.43,3.68,3.68,0,0,0-2.71-1.12,3.64,3.64,0,0,0-2.69,1.12m2.61.25a3.64,3.64,0,0,1,1.33.18,1.21,1.21,0,0,1,.76,1.23,1.09,1.09,0,0,1-.48,1,2.11,2.11,0,0,1-.71.23,1.19,1.19,0,0,1,.84.48,1.33,1.33,0,0,1,.27.76V214c0,.11,0,.23,0,.36a1,1,0,0,0,0,.26l0,.06h-.8a.11.11,0,0,1,0-.05s0,0,0-.06l0-.15V214a1.19,1.19,0,0,0-.45-1.11,2,2,0,0,0-1-.16h-.68v1.92h-.86v-4.88Zm.93.77a2.28,2.28,0,0,0-1-.18h-.74v1.76H389a2.45,2.45,0,0,0,.82-.1.77.77,0,0,0,.5-.77.75.75,0,0,0-.32-.71"/><path class="cls-2" d="M113,55.32l-.27,10.44h1.46l.46-3a15,15,0,0,1,.5-1.95,3.41,3.41,0,0,1,.89-1.42,4.31,4.31,0,0,1,1.74-1,10.1,10.1,0,0,1,3.07-.37h2.25V90.42h5.34V58.07h1.9a12.43,12.43,0,0,1,3.08.32,5.33,5.33,0,0,1,1.93.89,3.44,3.44,0,0,1,1.08,1.4,6.88,6.88,0,0,1,.46,2.06l.34,3h1.48l-.28-10.44Z"/><path class="cls-2" d="M166,82.88l-.06.29a5.78,5.78,0,0,1-1.82,3.52,7,7,0,0,1-4.17,1h-5a8,8,0,0,1-1.48-.1.88.88,0,0,1-.61-.38,2.66,2.66,0,0,1-.3-1.15c-.05-.57-.08-1.35-.08-2.34V73.44h4.9a4.61,4.61,0,0,1,3.4,1,4.17,4.17,0,0,1,.93,3v.36h1.82V66.37h-1.82v.36a7.31,7.31,0,0,1-.24,2.09,2.44,2.44,0,0,1-.69,1.14,2.71,2.71,0,0,1-1.28.56,10.53,10.53,0,0,1-2.12.18h-4.9V62c0-.92,0-1.66.08-2.21a3.11,3.11,0,0,1,.29-1.17.91.91,0,0,1,.62-.45,6.26,6.26,0,0,1,1.48-.14h4.54a6.78,6.78,0,0,1,3.94.91,4.78,4.78,0,0,1,1.69,3.12l.67,3.66h1.58l-.62-10.44H142.7v1.76h.37a12.55,12.55,0,0,1,1.82.13,2.89,2.89,0,0,1,1.26.48,2.2,2.2,0,0,1,.75,1.09,6.44,6.44,0,0,1,.29,2.17V90.43h20.37l.4-7.55h-2Z"/><path class="cls-2" d="M197.75,84.83a18.08,18.08,0,0,0,1.74-5.48,40.38,40.38,0,0,0,.5-6.48,36.12,36.12,0,0,0-.66-7.09A16.47,16.47,0,0,0,197.12,60a11,11,0,0,0-4.22-3.84,16.45,16.45,0,0,0-13.19,0A10.91,10.91,0,0,0,175.5,60a16.48,16.48,0,0,0-2.22,5.75,36.14,36.14,0,0,0-.65,7.09,37.42,37.42,0,0,0,.52,6.44,18.61,18.61,0,0,0,1.74,5.37,11.88,11.88,0,0,0,3.27,4,11.35,11.35,0,0,0,4.92,2.11,11.3,11.3,0,0,0,1.48,2.13A8.93,8.93,0,0,0,187,94.76,13,13,0,0,0,190.39,96a21.37,21.37,0,0,0,4.69.45,12.5,12.5,0,0,0,4.68-.92l.23-.09v-2l-.53.26a3.25,3.25,0,0,1-.55.19,5.91,5.91,0,0,1-.8.14c-.3,0-.7,0-1.17,0a11.77,11.77,0,0,1-3.22-.37,8.14,8.14,0,0,1-2.08-.91,4.89,4.89,0,0,1-1.27-1.2c-.22-.32-.44-.64-.63-1a11,11,0,0,0,4.68-1.89A11.35,11.35,0,0,0,197.75,84.83Zm-3.61-12c0,2-.07,3.93-.23,5.82a17.29,17.29,0,0,1-1.06,5A8.12,8.12,0,0,1,190.49,87a7.61,7.61,0,0,1-8.36,0,8.11,8.11,0,0,1-2.37-3.39,17.15,17.15,0,0,1-1.06-5c-.16-1.9-.23-3.84-.23-5.83h0c0-2,.07-3.91.23-5.77a17.09,17.09,0,0,1,1.06-4.9,8,8,0,0,1,2.37-3.39,7.56,7.56,0,0,1,8.36,0,8,8,0,0,1,2.36,3.39,17.09,17.09,0,0,1,1.06,4.9C194.07,69,194.14,70.89,194.14,72.87Z"/><path class="cls-2" d="M228,61V78.14a26.52,26.52,0,0,1-.3,4.17,7.88,7.88,0,0,1-1.16,3.13,5.61,5.61,0,0,1-2.45,2,10.59,10.59,0,0,1-4.34.74,7.82,7.82,0,0,1-3.9-.83,5.93,5.93,0,0,1-2.26-2.21,9.29,9.29,0,0,1-1.12-3.23,23.61,23.61,0,0,1-.3-3.78V55.32h-9.82v1.76h.37a12.26,12.26,0,0,1,1.85.13,2.74,2.74,0,0,1,1.23.48,2.2,2.2,0,0,1,.75,1.09,6.44,6.44,0,0,1,.29,2.17V78.14a28.41,28.41,0,0,0,.42,5.07,9.18,9.18,0,0,0,1.8,4.08A9,9,0,0,0,213,90a18.82,18.82,0,0,0,6.58,1,17.7,17.7,0,0,0,6.51-1,8.34,8.34,0,0,0,3.7-2.73,9.35,9.35,0,0,0,1.59-4.11,35.54,35.54,0,0,0,.34-5V55.33H228Z"/><path class="cls-2" d="M237.55,56.72v.37h.36a12.62,12.62,0,0,1,1.86.12,2.74,2.74,0,0,1,1.23.48,2.2,2.2,0,0,1,.75,1.09A6.44,6.44,0,0,1,242,61h0V90.42h5.32V55.32h-9.81Z"/><path class="cls-2" d="M276.62,80.1l-.47,2.46a16.76,16.76,0,0,1-.68,2.41,4.11,4.11,0,0,1-1,1.55,3.69,3.69,0,0,1-1.58.86,9.13,9.13,0,0,1-2.6.3h-3.46a12.2,12.2,0,0,1-1.82-.1,1.59,1.59,0,0,1-.86-.34,1.3,1.3,0,0,1-.37-.78,11.59,11.59,0,0,1-.1-1.67V55.33H253.9v1.76h.37a12.77,12.77,0,0,1,1.83.12,2.89,2.89,0,0,1,1.26.48,2.14,2.14,0,0,1,.74,1.09,6.4,6.4,0,0,1,.29,2.17V90.42h19.14L278,80.1h-1.35Z"/><path class="cls-2" d="M313,89.88c-.31-.9-1-2.74-2.07-5.53q-.66-1.8-1.66-4.36c-.64-1.7-1.42-3.74-2.31-6.11s-1.92-5.11-3.07-8.23-2.48-6.65-4-10.61l-.09-.23h-7.84v1.76h.36a5.91,5.91,0,0,1,2.61.39.65.65,0,0,1,.39.59,1.29,1.29,0,0,1,0,.25.53.53,0,0,0-.08.23q-2.78,7.25-4.73,12.44t-3.32,8.74c-.92,2.37-1.64,4.25-2.17,5.66s-.94,2.48-1.22,3.23-.51,1.34-.71,1.81l-.22.51h4.07v-.31c.12-.41,1.45-4.15,4-11.09H303.3c.37,1,.7,1.94,1,2.7s.64,1.74,1,2.74.7,1.9,1,2.73l1.14,3,.09.23h5.62ZM302.3,76.27H291.85L297.1,62Z"/><path class="cls-2" d="M373.63,206.31l-32.4-78.78h-4.42l-32.92,77.6s-3.81,10.25-20.7,10.25H261.4v-31c0-3.42,2.53-6.69,5.83-6.77h29.95v-9h-29.6c-3.65-.07-6.15-3.27-6.18-6.81V140.39a6.91,6.91,0,0,1,6.91-6.85v-.12h16.5c11.78,0,18.4,5.15,18.4,16.93h3v-11c0-5.89-2.21-11.78-12.52-11.78H234.9v5.86h2.94c8.84,0,10.31,5.89,10.31,14.72v65.68c0,3.69-2.7,7.28-6.87,6.16v0c-5-2.18-8.95-6.59-14.08-15.14l-15.46-25.77c10.31-2.21,23.56-8.1,23.56-25,0-23.56-24.29-26.5-36.81-26.5H160.2v5.86h2.94c8.84,0,10.31,5.89,10.31,14.72v69.3c-2.25-2.4-4.16-5.93-6.3-11.1l-32.4-78.78h-4.42L99,201.49l0,.06c-.66,1.5-1.41,3.64-3.06,4.33s-3.95,0-4.54-1.62v-78.2c0-6,2-8.67,6.64-8.67h21.28V104.82H60c-10.31,0-12.52,7-12.52,12.93v16.57H50.4c0-11.78,6.62-16.93,18.41-16.93H76.2v95c0,6.45,4.65,12.29,12.74,12.29,4.3,0,6.9-.54,8.66-4.45l9.91-23.53h35.6a6.9,6.9,0,0,1,5.77,3.7l2.26,5.87c7.56,16.93,19.69,19.15,26.32,19.15,3.25,0,9.24-.74,9.24-.74V190.33a6.62,6.62,0,0,1,6.89-6.4h6.69l11.46,20.91c9.57,16.2,16.2,21.35,26.51,21.35a52.61,52.61,0,0,0,10.84-1.47l46.53,0c5.49-.21,8.83-3.09,10.39-7.34l8-20.62h35.87a6.93,6.93,0,0,1,5.86,3.83l3.19,5.74c8.47,17.12,18.41,19.15,25,19.15a22.29,22.29,0,0,0,5.9-.74v-2.94c-8.1-.74-11.64-4.42-16.2-15.47M137.12,190.82v0H109.72l18.41-42.71,14.39,34.78a6,6,0,0,1-5.4,7.9m60.63-16.17a39.06,39.06,0,0,1-4.25-.26v0c-.23,0-.44,0-.66,0l-.22,0a6.93,6.93,0,0,1-5.91-5.53v-36l11.05,0c8.1,0,22.83,5.89,22.83,21.35,0,14.73-14.73,20.62-22.83,20.62m145.82,16.17v0H316.19l18.41-42.71L349,182.82a6,6,0,0,1-5.38,8"/></g></g></svg>