<svg xmlns="http://www.w3.org/2000/svg" viewBox="0 0 123.35 61.08"><defs><style>.cls-1{fill:#999;}</style></defs><g id="Capa_2" data-name="Capa 2"><g id="Capa_1-2" data-name="Capa 1"><path class="cls-1" d="M122.88,57.24a1.5,1.5,0,0,1-1.12.46,1.52,1.52,0,0,1-1.12-.46,1.56,1.56,0,0,1-.46-1.12,1.53,1.53,0,0,1,.47-1.12,1.58,1.58,0,0,1,2.23,0,1.53,1.53,0,0,1,.47,1.12,1.54,1.54,0,0,1-.47,1.12m-2.08-2.09a1.38,1.38,0,0,0,0,1.94,1.28,1.28,0,0,0,1,.4,1.31,1.31,0,0,0,1-.4,1.37,1.37,0,1,0-1.93-1.94m.93.09a1.15,1.15,0,0,1,.48.07.43.43,0,0,1,.27.44.38.38,0,0,1-.17.34.57.57,0,0,1-.26.08.41.41,0,0,1,.3.17.48.48,0,0,1,.1.27v.26a.41.41,0,0,0,0,.09v0h-.29v-.23a.44.44,0,0,0-.17-.4.86.86,0,0,0-.34-.05h-.24V57h-.31V55.24Zm.33.28a.69.69,0,0,0-.37-.07h-.26v.63h.28a.75.75,0,0,0,.29,0,.26.26,0,0,0,.18-.27.25.25,0,0,0-.12-.25"/><path class="cls-1" d="M23.35.19,23.26,3.9h.52l.16-1.06a5.93,5.93,0,0,1,.18-.7,1.23,1.23,0,0,1,.32-.51,1.63,1.63,0,0,1,.62-.34,3.9,3.9,0,0,1,1.09-.13H27V12.69h1.9V1.16h.67a4.14,4.14,0,0,1,1.1.12,1.84,1.84,0,0,1,.69.31,1.24,1.24,0,0,1,.38.5,2.52,2.52,0,0,1,.17.74L32,3.9h.53L32.42.19Z"/><path class="cls-1" d="M42.25,10l0,.1a2,2,0,0,1-.65,1.25,2.41,2.41,0,0,1-1.48.36H38.32a3.37,3.37,0,0,1-.53,0,.29.29,0,0,1-.21-.14.92.92,0,0,1-.11-.4q0-.32,0-.84V6.64h1.75A1.63,1.63,0,0,1,40.4,7a1.5,1.5,0,0,1,.33,1.07v.13h.65V4.12h-.65v.13a2.87,2.87,0,0,1-.08.74.82.82,0,0,1-.25.41,1,1,0,0,1-.45.2,4,4,0,0,1-.76.07H37.44V2.58c0-.33,0-.59,0-.79a1.43,1.43,0,0,1,.1-.42.37.37,0,0,1,.23-.16,2.27,2.27,0,0,1,.52-.05h1.62a2.44,2.44,0,0,1,1.41.33A1.74,1.74,0,0,1,42,2.6l.24,1.3h.56L42.53.18H34V.81h.13a4.4,4.4,0,0,1,.65,0,1,1,0,0,1,.45.17.79.79,0,0,1,.26.39,2.24,2.24,0,0,1,.1.77v10.5h7.27L43,10h-.7Z"/><path class="cls-1" d="M53.57,10.7a6.66,6.66,0,0,0,.62-1.95,15.29,15.29,0,0,0,.17-2.31,12.73,12.73,0,0,0-.23-2.53,6,6,0,0,0-.79-2A3.89,3.89,0,0,0,51.84.49a5.88,5.88,0,0,0-4.7,0,4,4,0,0,0-1.51,1.37,6,6,0,0,0-.79,2.05,13.52,13.52,0,0,0-.23,2.53,12.71,12.71,0,0,0,.19,2.29,6.46,6.46,0,0,0,.62,1.92,4.3,4.3,0,0,0,1.16,1.41,4.08,4.08,0,0,0,1.76.75,4.27,4.27,0,0,0,.52.76,3.25,3.25,0,0,0,.86.67,4.7,4.7,0,0,0,1.22.45,7.45,7.45,0,0,0,1.67.16,4.4,4.4,0,0,0,1.67-.33l.08,0v-.7l-.19.09L54,14a1.72,1.72,0,0,1-.29.05h-.41a4,4,0,0,1-1.15-.13,2.87,2.87,0,0,1-.74-.32,1.69,1.69,0,0,1-.45-.43l-.23-.34a3.8,3.8,0,0,0,1.67-.67A4.13,4.13,0,0,0,53.57,10.7ZM52.28,6.44c0,.71,0,1.4-.08,2.07a6.26,6.26,0,0,1-.38,1.77A3.06,3.06,0,0,1,51,11.49a2.69,2.69,0,0,1-3,0,3,3,0,0,1-.85-1.21,6.28,6.28,0,0,1-.37-1.76c-.06-.68-.09-1.37-.09-2.08h0c0-.71,0-1.39.09-2.06a6.36,6.36,0,0,1,.37-1.75A2.88,2.88,0,0,1,48,1.43a2.69,2.69,0,0,1,3,0,3,3,0,0,1,.84,1.2,6.36,6.36,0,0,1,.38,1.75C52.26,5.05,52.28,5.73,52.28,6.44Z"/><path class="cls-1" d="M64.35,2.19V8.32a8.47,8.47,0,0,1-.1,1.48,2.73,2.73,0,0,1-.42,1.12,2,2,0,0,1-.87.72,3.82,3.82,0,0,1-1.54.26A2.73,2.73,0,0,1,60,11.6a2.05,2.05,0,0,1-.81-.79,3.33,3.33,0,0,1-.4-1.15,8.55,8.55,0,0,1-.11-1.34V.18H55.21V.81h.13a4.23,4.23,0,0,1,.66,0,1,1,0,0,1,.44.17.86.86,0,0,1,.26.39,2.21,2.21,0,0,1,.11.77V8.32a11.15,11.15,0,0,0,.14,1.8,3.3,3.3,0,0,0,.65,1.46,3.2,3.2,0,0,0,1.39,1,6.65,6.65,0,0,0,2.34.34,6.4,6.4,0,0,0,2.32-.35,2.93,2.93,0,0,0,1.32-1,3.54,3.54,0,0,0,.57-1.47,13.94,13.94,0,0,0,.12-1.77V.19H64.35Z"/><path class="cls-1" d="M67.75.68V.81h.13a4.23,4.23,0,0,1,.66,0A1,1,0,0,1,69,1a.79.79,0,0,1,.27.39,2.52,2.52,0,0,1,.1.77h0v10.5h1.9V.18h-3.5Z"/><path class="cls-1" d="M81.67,9l-.16.88a7.09,7.09,0,0,1-.25.86,1.43,1.43,0,0,1-.34.55,1.32,1.32,0,0,1-.56.31,3.38,3.38,0,0,1-.93.11H78.2a5,5,0,0,1-.65,0,.57.57,0,0,1-.31-.12.46.46,0,0,1-.13-.28,4.18,4.18,0,0,1,0-.59V.19H73.58V.81h.13a4.19,4.19,0,0,1,.65,0,.92.92,0,0,1,.45.17.75.75,0,0,1,.27.39,2.52,2.52,0,0,1,.1.77v10.5H82L82.16,9h-.49Z"/><path class="cls-1" d="M94.63,12.5c-.11-.32-.36-1-.73-2-.16-.43-.36-.94-.6-1.55s-.5-1.34-.82-2.18S91.79,5,91.39,3.86,90.5,1.49,90,.08l0-.08h-2.8V.63h.13a2.18,2.18,0,0,1,.93.14c.11.07.14.12.14.21a.34.34,0,0,1,0,.09.11.11,0,0,0,0,.08q-1,2.58-1.68,4.43c-.47,1.24-.86,2.28-1.19,3.12l-.77,2-.44,1.16c-.09.26-.18.47-.25.64l-.08.18h1.45v-.11c0-.14.52-1.48,1.42-3.95h4.43q.19.55.36,1l.36,1c.12.35.25.68.35,1s.25.65.41,1.05l0,.08h2Zm-3.8-4.85H87.1L89,2.55Z"/><path class="cls-1" d="M116.25,54,104.7,25.92h-1.58L91.39,53.57S90,57.23,84,57.23H76.25V46.17a2.34,2.34,0,0,1,2.08-2.41H89V40.54H78.45a2.33,2.33,0,0,1-2.2-2.43V30.5a2.46,2.46,0,0,1,2.46-2.44v0h5.88c4.2,0,6.56,1.83,6.56,6h1V30.12c0-2.1-.79-4.2-4.46-4.2H66.8V28h1c3.15,0,3.68,2.09,3.68,5.24V56.66c0,1.32-1,2.6-2.45,2.2h0c-1.78-.78-3.19-2.35-5-5.4l-5.51-9.18c3.68-.79,8.4-2.89,8.4-8.93,0-8.39-8.66-9.44-13.12-9.44H40.18V28h1c3.15,0,3.68,2.09,3.68,5.24V58a12.77,12.77,0,0,1-2.25-4L31.11,25.92H29.54L18.36,52.28l0,0c-.24.53-.5,1.3-1.09,1.54a1.3,1.3,0,0,1-1.62-.58V25.39c0-2.15.7-3.09,2.37-3.09h7.58V17.83H4.46C.79,17.83,0,20.33,0,22.43v5.91H1.05c0-4.2,2.36-6,6.56-6h2.64V56.18a4.3,4.3,0,0,0,4.54,4.38c1.53,0,2.45-.2,3.08-1.59l3.54-8.39H34.09a2.47,2.47,0,0,1,2.06,1.32L37,54c2.69,6,7,6.82,9.37,6.82,1.16,0,3.3-.26,3.3-.26V48.3A2.36,2.36,0,0,1,52.08,46h2.39l4.08,7.45C62,59.24,64.32,61.08,68,61.08a19,19,0,0,0,3.86-.52H88.44a3.83,3.83,0,0,0,3.71-2.62L95,50.58h12.78A2.47,2.47,0,0,1,109.86,52L111,54c3,6.1,6.56,6.82,8.92,6.82a8.23,8.23,0,0,0,2.1-.26V59.51c-2.89-.27-4.15-1.58-5.77-5.51M32,48.47v0H22.19l6.56-15.22,5.13,12.39A2.12,2.12,0,0,1,32,48.47m21.61-5.76a13.17,13.17,0,0,1-1.52-.09v0h-.32a2.48,2.48,0,0,1-2.1-2V27.77l3.94,0c2.88,0,8.13,2.1,8.13,7.61,0,5.25-5.25,7.35-8.13,7.35m52,5.76v0H95.78l6.56-15.22,5.11,12.35a2.14,2.14,0,0,1-1.92,2.85"/></g></g></svg>