<svg xmlns="http://www.w3.org/2000/svg" viewBox="0 0 346.1 171.39"><defs><style>.cls-1{fill:#fff;}</style></defs><g id="Capa_2" data-name="Capa 2"><g id="Capa_1-2" data-name="Capa 1"><path class="cls-1" d="M344.8,160.61a4.45,4.45,0,0,1-6.29,0,4.32,4.32,0,0,1-1.29-3.16,4.44,4.44,0,1,1,7.58,3.16M339,154.76a3.66,3.66,0,0,0-1.12,2.7,3.79,3.79,0,0,0,1.1,2.73,3.84,3.84,0,0,0,5.42,0,3.76,3.76,0,0,0,1.11-2.73,3.82,3.82,0,0,0-3.82-3.83,3.65,3.65,0,0,0-2.69,1.13m2.61.24a3.64,3.64,0,0,1,1.33.18,1.22,1.22,0,0,1,.76,1.24,1.07,1.07,0,0,1-.48,1,1.74,1.74,0,0,1-.71.23,1.23,1.23,0,0,1,.84.48,1.35,1.35,0,0,1,.27.76v.36c0,.11,0,.23,0,.36a.83.83,0,0,0,0,.25l0,.06h-.8s0,0,0,0a.13.13,0,0,0,0-.06l0-.16v-.38a1.18,1.18,0,0,0-.46-1.12,2.1,2.1,0,0,0-1-.16h-.68v1.92h-.86V155Zm.93.77a2.28,2.28,0,0,0-1-.18h-.74v1.77h.78a2.45,2.45,0,0,0,.82-.11.74.74,0,0,0,.5-.76.77.77,0,0,0-.32-.72"/><path class="cls-1" d="M65.53.52,65.25,11h1.47l.46-3A14.59,14.59,0,0,1,67.68,6a3.41,3.41,0,0,1,.89-1.43,4.43,4.43,0,0,1,1.74-1,10.42,10.42,0,0,1,3.07-.37h2.25V35.62H81V3.26h1.91A12.43,12.43,0,0,1,86,3.58a5.59,5.59,0,0,1,1.93.89A3.41,3.41,0,0,1,89,5.88a6.82,6.82,0,0,1,.46,2.05l.34,3h1.48L91,.52Z"/><path class="cls-1" d="M118.54,28.08l-.06.29a5.76,5.76,0,0,1-1.83,3.52,6.86,6.86,0,0,1-4.16,1h-5a9.19,9.19,0,0,1-1.48-.09.86.86,0,0,1-.61-.39,2.56,2.56,0,0,1-.3-1.14c0-.57-.08-1.36-.08-2.34V18.64H110c1.71,0,2.82.36,3.4,1a4.2,4.2,0,0,1,.93,3V23h1.82V11.56h-1.82v.37a7.23,7.23,0,0,1-.24,2.08,2.47,2.47,0,0,1-.69,1.15,2.71,2.71,0,0,1-1.28.56,10.53,10.53,0,0,1-2.12.18h-4.9V7.23c0-.92,0-1.66.08-2.2a3.12,3.12,0,0,1,.29-1.18.9.9,0,0,1,.62-.44,5.64,5.64,0,0,1,1.48-.15h4.54a6.86,6.86,0,0,1,3.94.91A4.81,4.81,0,0,1,117.7,7.3l.67,3.65H120L119.33.52H95.25V2.28h.37a12.55,12.55,0,0,1,1.82.13,2.89,2.89,0,0,1,1.26.47A2.23,2.23,0,0,1,99.45,4a6.44,6.44,0,0,1,.28,2.17V35.62h20.38l.4-7.54h-2Z"/><path class="cls-1" d="M150.3,30A18.17,18.17,0,0,0,152,24.55a40.38,40.38,0,0,0,.5-6.48,36,36,0,0,0-.66-7.09,16.6,16.6,0,0,0-2.21-5.76,10.9,10.9,0,0,0-4.22-3.83,16.34,16.34,0,0,0-13.19,0,10.81,10.81,0,0,0-4.21,3.83A16.53,16.53,0,0,0,125.83,11a36.06,36.06,0,0,0-.65,7.09,37.3,37.3,0,0,0,.52,6.43,18.51,18.51,0,0,0,1.74,5.37,11.82,11.82,0,0,0,3.27,4,11.22,11.22,0,0,0,4.92,2.1,11,11,0,0,0,1.48,2.13A9,9,0,0,0,139.5,40a13.39,13.39,0,0,0,3.43,1.25,21.53,21.53,0,0,0,4.7.45,12.69,12.69,0,0,0,4.68-.91l.23-.09v-2L152,39a5,5,0,0,1-.55.18,4.67,4.67,0,0,1-.8.14c-.3,0-.7,0-1.17,0a11.39,11.39,0,0,1-3.22-.37,7.66,7.66,0,0,1-2.08-.91,4.73,4.73,0,0,1-1.27-1.2,11.15,11.15,0,0,1-.63-1A10.83,10.83,0,0,0,147,34,11.31,11.31,0,0,0,150.3,30Zm-3.61-12c0,2-.07,3.93-.23,5.82a17.22,17.22,0,0,1-1.06,5A8.17,8.17,0,0,1,143,32.24a7.6,7.6,0,0,1-8.35,0,8.17,8.17,0,0,1-2.37-3.39,17.22,17.22,0,0,1-1.06-5c-.16-1.89-.23-3.84-.23-5.82h0c0-2,.07-3.91.23-5.78a17.17,17.17,0,0,1,1.06-4.9A8.08,8.08,0,0,1,134.68,4,7.55,7.55,0,0,1,143,4a8.08,8.08,0,0,1,2.37,3.38,17.17,17.17,0,0,1,1.06,4.9C146.62,14.16,146.69,16.08,146.69,18.07Z"/><path class="cls-1" d="M180.55,6.15V23.33a26.74,26.74,0,0,1-.3,4.18,8,8,0,0,1-1.16,3.13,5.71,5.71,0,0,1-2.46,2,10.68,10.68,0,0,1-4.33.74,7.93,7.93,0,0,1-3.9-.83,5.88,5.88,0,0,1-2.26-2.22A9.31,9.31,0,0,1,165,27.12a23.73,23.73,0,0,1-.3-3.79V.52H154.9V2.28h.37a11.08,11.08,0,0,1,1.85.13,2.85,2.85,0,0,1,1.23.47A2.23,2.23,0,0,1,159.1,4a6.4,6.4,0,0,1,.29,2.17V23.33a28.41,28.41,0,0,0,.42,5.07,9.06,9.06,0,0,0,1.8,4.09,8.82,8.82,0,0,0,3.9,2.69,18.59,18.59,0,0,0,6.58,1,17.49,17.49,0,0,0,6.51-1,8.19,8.19,0,0,0,3.7-2.73,9.31,9.31,0,0,0,1.59-4.1,35.73,35.73,0,0,0,.33-5V.52h-3.67Z"/><path class="cls-1" d="M190.1,1.91v.37h.36a12.5,12.5,0,0,1,1.86.13,2.85,2.85,0,0,1,1.23.47A2.3,2.3,0,0,1,194.3,4a6.66,6.66,0,0,1,.29,2.17h0V35.62h5.33V.52H190.1Z"/><path class="cls-1" d="M229.17,25.29l-.47,2.46a16.76,16.76,0,0,1-.68,2.41,4,4,0,0,1-1,1.55,3.76,3.76,0,0,1-1.58.87,9.59,9.59,0,0,1-2.61.29h-3.45a14,14,0,0,1-1.82-.09,1.58,1.58,0,0,1-.86-.35,1.3,1.3,0,0,1-.37-.77,11.69,11.69,0,0,1-.1-1.67V.52h-9.81V2.28h.37a12.69,12.69,0,0,1,1.83.13,2.89,2.89,0,0,1,1.26.47,2.29,2.29,0,0,1,.74,1.1,6.4,6.4,0,0,1,.29,2.17V35.62h19.14l.44-10.33h-1.35Z"/><path class="cls-1" d="M265.53,35.08c-.31-.9-1-2.75-2.07-5.53-.45-1.2-1-2.66-1.66-4.36s-1.42-3.74-2.31-6.12-1.92-5.11-3.07-8.23-2.48-6.65-4-10.6L252.33,0h-7.84V1.77h.36a5.8,5.8,0,0,1,2.61.39.65.65,0,0,1,.39.58.81.81,0,0,1,0,.25.73.73,0,0,0-.07.24Q245,10.48,243,15.67t-3.32,8.74q-1.38,3.54-2.17,5.65l-1.22,3.23c-.27.74-.51,1.35-.71,1.82l-.23.51h4.08V35.3c.12-.4,1.45-4.15,4-11.08h12.44q.56,1.55,1,2.7c.31.82.65,1.73,1,2.73s.7,1.91,1,2.74L260,35.33l.09.23h5.62ZM254.85,21.47H244.4l5.25-14.31Z"/><path class="cls-1" d="M326.17,151.51,293.78,72.72h-4.42l-32.92,77.6s-3.81,10.26-20.7,10.26H214v-31c0-3.42,2.53-6.68,5.82-6.76h30v-9h-29.6c-3.65-.08-6.15-3.27-6.18-6.81V85.58a6.91,6.91,0,0,1,6.91-6.85v-.12h16.5c11.78,0,18.4,5.16,18.4,16.94h2.95v-11c0-5.89-2.21-11.78-12.52-11.78H187.45v5.86h2.94c8.83,0,10.31,5.89,10.31,14.73V159c0,3.69-2.7,7.29-6.87,6.16v0c-5-2.18-9-6.59-14.08-15.13l-15.46-25.78c10.31-2.21,23.56-8.1,23.56-25,0-23.56-24.29-26.51-36.81-26.51H112.75v5.86h2.94c8.84,0,10.31,5.89,10.31,14.73V162.6c-2.25-2.39-4.17-5.93-6.3-11.09L87.3,72.72H82.88l-31.37,74,0,.07c-.66,1.49-1.41,3.63-3.06,4.33s-3.95,0-4.54-1.63V71.25c0-6,2-8.67,6.64-8.67H71.78V50H12.52C2.21,50,0,57.06,0,63V79.52H3c0-11.78,6.62-16.94,18.4-16.94h7.4v95.05c0,6.45,4.65,12.29,12.74,12.29,4.3,0,6.89-.54,8.66-4.45l9.91-23.53h35.6a6.86,6.86,0,0,1,5.77,3.7l2.26,5.87c7.56,16.92,19.69,19.15,26.32,19.15,3.25,0,9.24-.74,9.24-.74V135.53a6.61,6.61,0,0,1,6.89-6.4h6.69L164.29,150c9.57,16.19,16.2,21.35,26.51,21.35a52.61,52.61,0,0,0,10.84-1.47l46.53,0c5.49-.2,8.83-3.08,10.39-7.33l8-20.62H302.4a6.89,6.89,0,0,1,5.85,3.82l3.2,5.75c8.46,17.12,18.41,19.15,25,19.15a22.29,22.29,0,0,0,5.9-.74V167c-8.1-.74-11.64-4.41-16.21-15.46M89.67,136v0H62.27L80.68,93.34l14.39,34.77a6,6,0,0,1-5.4,7.9m60.63-16.16a36.75,36.75,0,0,1-4.25-.27v0c-.23,0-.44,0-.66,0l-.22,0a6.92,6.92,0,0,1-5.91-5.53v-36l11.05,0c8.1,0,22.83,5.89,22.83,21.35,0,14.72-14.73,20.62-22.83,20.62M296.12,136v0H268.74l18.41-42.71L301.5,128a6,6,0,0,1-5.38,8"/></g></g></svg>