<svg xmlns="http://www.w3.org/2000/svg" viewBox="0 0 85.75 121.86"><defs><style>.cls-1{fill:none;stroke:#fff;stroke-linecap:round;stroke-linejoin:round;stroke-width:2.34px;}.cls-2{fill:#fff;}</style></defs><g id="Capa_2" data-name="Capa 2"><g id="Capa_1-2" data-name="Capa 1"><polyline class="cls-1" points="42.84 36.99 42.84 86.04 54.61 74.53"/><line class="cls-1" x1="42.84" y1="86.04" x2="31.08" y2="74.59"/><path class="cls-2" d="M2.89,35.87c-.91,0-1.43.57-1.57,1.62a1.91,1.91,0,0,0,.24,1.34,1.27,1.27,0,0,0,.91.57,1.2,1.2,0,0,0,.89-.17A2.4,2.4,0,0,0,4,38.39l.88-1.66A3.52,3.52,0,0,1,6,35.44a2.37,2.37,0,0,1,1.7-.32,2.29,2.29,0,0,1,1.68,1.05,3.23,3.23,0,0,1,.44,2.29,3.3,3.3,0,0,1-1,2.17,2.8,2.8,0,0,1-2.27.64l.13-1a1.72,1.72,0,0,0,1.46-.41,2.27,2.27,0,0,0,.67-1.42,2.19,2.19,0,0,0-.26-1.5,1.34,1.34,0,0,0-1-.66,1.31,1.31,0,0,0-1,.2,2.46,2.46,0,0,0-.71.89L5,38.75a4.39,4.39,0,0,1-1.1,1.45,2.12,2.12,0,0,1-1.61.34,2.24,2.24,0,0,1-1.6-1,3,3,0,0,1-.41-2.17,3,3,0,0,1,.9-2A2.65,2.65,0,0,1,3,34.84Z"/><path class="cls-2" d="M3.81,25a3.13,3.13,0,0,1,1.57-1.68A3.88,3.88,0,0,1,7.61,23l-.24,1.14a3,3,0,0,0-1.6.2,1.9,1.9,0,0,0-1,1,2.09,2.09,0,0,0,.16,2,4.48,4.48,0,0,0,2.17,1.74,5.33,5.33,0,0,0,2.78.58,2,2,0,0,0,1.71-1.23,2.19,2.19,0,0,0,.12-1.69,2.06,2.06,0,0,0-1.16-1.16l.47-1a3.05,3.05,0,0,1,1.73,1.78A3.48,3.48,0,0,1,12.5,29a3.05,3.05,0,0,1-2.26,1.77,5.92,5.92,0,0,1-3.63-.58,5.34,5.34,0,0,1-2.74-2.35A3.14,3.14,0,0,1,3.81,25Z"/><path class="cls-2" d="M14.81,13.94a2.91,2.91,0,0,1,1,1.64,2.57,2.57,0,0,1-.4,1.83l4.48.73-.91,1-4.27-.86-1,1.11,2.84,2.5-.7.79L9,16.59l1.93-2.2a3,3,0,0,1,2-1.14A2.56,2.56,0,0,1,14.81,13.94Zm-.48,3.59a1.73,1.73,0,0,0-.11-2.67,1.86,1.86,0,0,0-1.31-.52,1.87,1.87,0,0,0-1.28.71L10.4,16.46l2.75,2.42Z"/><path class="cls-2" d="M20.56,6.08a3.23,3.23,0,0,1,2.89-.33,5.52,5.52,0,0,1,2.73,2.52,5.44,5.44,0,0,1,1,3.56,3.26,3.26,0,0,1-1.63,2.42,3.23,3.23,0,0,1-2.89.33A5.51,5.51,0,0,1,20,12.07a5.56,5.56,0,0,1-1-3.56A3.23,3.23,0,0,1,20.56,6.08Zm2.64.75A2.27,2.27,0,0,0,20,8.77a4.8,4.8,0,0,0,.88,2.74,4.61,4.61,0,0,0,2,2,2.31,2.31,0,0,0,3.18-1.94,4.63,4.63,0,0,0-.85-2.72A4.78,4.78,0,0,0,23.2,6.83Z"/><path class="cls-2" d="M33,9.64l3.62-1,.27,1L32.24,10.9,29.77,2l1-.28Z"/><path class="cls-2" d="M41.26,8.23,45,8.14l0,1-4.8.11L40,0l1.06,0Z"/><path class="cls-2" d="M59.45,3.33a4,4,0,0,1,2.28,2.38,4.82,4.82,0,0,1-.32,3.55A4.83,4.83,0,0,1,59,11.88a3.93,3.93,0,0,1-3.3-.08l-2.26-1,3.73-8.47Zm-4.62,7,1.29.57a2.73,2.73,0,0,0,2.46,0,4,4,0,0,0,1.81-2,3.92,3.92,0,0,0,.27-2.7A2.71,2.71,0,0,0,59,4.28l-1.3-.58Z"/><path class="cls-2" d="M71.33,10.68a3.26,3.26,0,0,1,1.16,2.68,5.49,5.49,0,0,1-1.62,3.34,5.46,5.46,0,0,1-3.12,2A3.26,3.26,0,0,1,65,17.83a3.23,3.23,0,0,1-1.16-2.67,5.54,5.54,0,0,1,1.62-3.32,5.54,5.54,0,0,1,3.11-2A3.22,3.22,0,0,1,71.33,10.68Zm.06,2.75A2.28,2.28,0,0,0,68.6,11a4.83,4.83,0,0,0-2.36,1.63,4.71,4.71,0,0,0-1.33,2.52A2.16,2.16,0,0,0,65.67,17a2.21,2.21,0,0,0,2,.54A4.65,4.65,0,0,0,70.05,16,4.82,4.82,0,0,0,71.39,13.43Z"/><path class="cls-2" d="M78.41,18.62,72.59,24l6.92-1.34.33.63-5,5,7.9-1.54.54,1-9.56,1.74-.52-1,4.37-4.41-6.13,1.11-.52-1,6.91-6.7Z"/><path class="cls-2" d="M85,35.47l-6.86,5.06,7.38-.92.13,1L76.48,41.8l-.14-1.17,7-5.13-7.47.92-.13-1.06,9.18-1.14Z"/><path class="cls-2" d="M83.34,79.57a1.57,1.57,0,0,0,1.35-1.8,1.87,1.87,0,0,0-.4-1.3,1.23,1.23,0,0,0-1-.46,1.22,1.22,0,0,0-.86.28,2.32,2.32,0,0,0-.52.91L81.28,79a3.54,3.54,0,0,1-.92,1.42,2.43,2.43,0,0,1-1.66.53,2.29,2.29,0,0,1-1.79-.83,3.21,3.21,0,0,1-.73-2.22A3.36,3.36,0,0,1,77,75.58a2.79,2.79,0,0,1,2.17-.92v1a1.75,1.75,0,0,0-1.4.58,2.29,2.29,0,0,0-.48,1.5,2.17,2.17,0,0,0,.45,1.45,1.34,1.34,0,0,0,1.06.54,1.37,1.37,0,0,0,1-.33,2.55,2.55,0,0,0,.59-1L80.9,77a4.24,4.24,0,0,1,.91-1.58,2.07,2.07,0,0,1,1.55-.54,2.22,2.22,0,0,1,1.71.75,3.6,3.6,0,0,1,0,4.17,2.61,2.61,0,0,1-1.76.82Z"/><path class="cls-2" d="M84.63,90.08a3.12,3.12,0,0,1-1.22,2,3.75,3.75,0,0,1-2.14.67l0-1.16A3,3,0,0,0,82.81,91a2,2,0,0,0,.8-1.18,2.1,2.1,0,0,0-.55-1.93,4.57,4.57,0,0,0-2.48-1.29,5.44,5.44,0,0,0-2.84,0,2,2,0,0,0-1.43,1.54,2.16,2.16,0,0,0,.21,1.68,2.09,2.09,0,0,0,1.37.91l-.26,1.11a3,3,0,0,1-2-1.4,3.47,3.47,0,0,1-.28-2.6,3,3,0,0,1,1.86-2.18,5.85,5.85,0,0,1,3.68-.15A5.36,5.36,0,0,1,84,87.28,3.19,3.19,0,0,1,84.63,90.08Z"/><path class="cls-2" d="M76,103.05a2.93,2.93,0,0,1-1.32-1.42,2.62,2.62,0,0,1,0-1.87l-4.52.15.68-1.18,4.37,0L76,97.47l-3.26-1.9.53-.91,8,4.65-1.48,2.53a2.9,2.9,0,0,1-1.74,1.5A2.55,2.55,0,0,1,76,103.05Zm-.23-3.62a1.94,1.94,0,0,0-.28,1.5,1.82,1.82,0,0,0,3.41.41l.94-1.62-3.17-1.84Z"/><path class="cls-2" d="M71.84,111.89a3.29,3.29,0,0,1-2.78.89,5.5,5.5,0,0,1-3.16-2,5.43,5.43,0,0,1-1.67-3.3A3.47,3.47,0,0,1,68.14,104,6.86,6.86,0,0,1,73,109.2,3.23,3.23,0,0,1,71.84,111.89Zm-2.74-.22a2.27,2.27,0,0,0,2.74-2.52,4.79,4.79,0,0,0-1.39-2.52,4.6,4.6,0,0,0-2.37-1.57,2.17,2.17,0,0,0-2,.56,2.2,2.2,0,0,0-.73,2,4.64,4.64,0,0,0,1.36,2.5A4.7,4.7,0,0,0,69.1,111.67Z"/><path class="cls-2" d="M59,110.81l-3.34,1.69-.46-.9,4.29-2.17,4.17,8.26-.94.47Z"/><path class="cls-2" d="M51.11,113.82l-3.65.83-.23-1,4.69-1.06,2,9-1,.24Z"/><path class="cls-2" d="M25.67,119.45A4,4,0,0,1,23.43,117a5.56,5.56,0,0,1,2.81-6.12,3.92,3.92,0,0,1,3.29.13l2.25,1-3.85,8.41Zm4.73-6.9L29.11,112a2.73,2.73,0,0,0-2.46,0,4,4,0,0,0-1.84,2,3.93,3.93,0,0,0-.31,2.7,2.76,2.76,0,0,0,1.6,1.84l1.29.59Z"/><path class="cls-2" d="M13.93,112a3.27,3.27,0,0,1-1.13-2.69A5.56,5.56,0,0,1,14.47,106a5.42,5.42,0,0,1,3.14-2,3.47,3.47,0,0,1,3.9,3.58,5.55,5.55,0,0,1-1.66,3.3,5.49,5.49,0,0,1-3.14,2A3.21,3.21,0,0,1,13.93,112Zm0-2.75a2.27,2.27,0,0,0,2.75,2.52,4.84,4.84,0,0,0,2.39-1.61,4.67,4.67,0,0,0,1.36-2.5,2.17,2.17,0,0,0-.74-2,2.2,2.2,0,0,0-2-.56,4.66,4.66,0,0,0-2.37,1.57A4.83,4.83,0,0,0,13.91,109.21Z"/><path class="cls-2" d="M7,103.92l5.9-5.34L5.91,99.82l-.33-.63,5.05-4.92L2.71,95.71l-.53-1,9.58-1.6.51,1L7.84,98.4l6.14-1,.51,1-7,6.61Z"/><path class="cls-2" d="M.57,87,7.5,82l-7.38.81-.12-1,9.2-1,.12,1.17-7,5,7.49-.82L9.9,87.2l-9.19,1Z"/></g></g></svg>